<svg id="Calque_1" data-name="Calque 1" xmlns="http://www.w3.org/2000/svg" viewBox="0 0 466.1858 279.4739"><defs><style>.cls-1{fill:none;}.cls-1,.cls-5{stroke:#1d1d1b;stroke-miterlimit:10;stroke-width:3px;}.cls-11,.cls-2,.cls-9{font-size:12px;}.cls-11,.cls-2,.cls-3,.cls-4,.cls-5,.cls-8,.cls-9{fill:#1d1d1b;}.cls-2,.cls-4,.cls-8{font-family:Helvetica, Helvetica;}.cls-4{font-size:47.6124px;}.cls-6{font-size:39.2259px;}.cls-6,.cls-7{fill:#fff;}.cls-11,.cls-6,.cls-7,.cls-9{font-family:MyriadPro-Regular, Myriad Pro;}.cls-7{font-size:23.3779px;}.cls-8{font-size:10.3038px;}.cls-10{letter-spacing:0.008em;}.cls-11{letter-spacing:-0.084em;}.cls-12{letter-spacing:-0.028em;}.cls-13{letter-spacing:0em;}.cls-14{letter-spacing:0.024em;}.cls-15{letter-spacing:-0.006em;}.cls-16{letter-spacing:-0.004em;}.cls-17{letter-spacing:0.018em;}</style></defs><title>Sequencer Design rev2.0</title><rect class="cls-1" x="1.6308" y="46.1667" width="463.055" height="231.8073"/><rect class="cls-1" x="16.0621" y="129.7689" width="261.6117" height="79.3333" rx="5.3993" ry="5.3993"/><text class="cls-2" transform="translate(339.9558 134.3076)">PITCH</text><text class="cls-2" transform="translate(333.261 217.7859)">OCTAVE</text><rect class="cls-3" x="407.8752" y="150.314" width="31.5438" height="31.5438" rx="4.1871" ry="4.1871"/><text class="cls-2" transform="translate(398.8754 198.1731)">SILENCE</text><text class="cls-2" transform="translate(313.5268 251.7866)">STEP</text><text class="cls-4" transform="translate(99.2795 186.6947)">LCD</text><circle class="cls-5" cx="38.3571" cy="242.0219" r="4.5109"/><circle class="cls-5" cx="175.8462" cy="242.0219" r="4.5109"/><circle class="cls-5" cx="155.6125" cy="242.0219" r="4.5109"/><circle class="cls-5" cx="135.8462" cy="242.0219" r="4.5109"/><circle class="cls-5" cx="115.8462" cy="242.0219" r="4.5109"/><circle class="cls-5" cx="96.8462" cy="242.0219" r="4.5109"/><circle class="cls-5" cx="57.935" cy="242.0219" r="4.5109"/><circle class="cls-5" cx="77.5129" cy="242.0219" r="4.5109"/><text class="cls-2" transform="translate(35.0046 259.4222)">1</text><text class="cls-2" transform="translate(54.6715 259.4223)">2</text><text class="cls-2" transform="translate(74.2629 259.4221)">3</text><text class="cls-2" transform="translate(93.0022 259.8382)">4</text><text class="cls-2" transform="translate(112.6712 259.8386)">5</text><text class="cls-2" transform="translate(132.588 259.8384)">6</text><text class="cls-2" transform="translate(152.4349 259.8385)">7</text><text class="cls-2" transform="translate(172.5125 259.8386)">8</text><circle class="cls-1" cx="420.5515" cy="235.7863" r="19"/><text class="cls-2" transform="translate(398.8753 268.5196)">TEMPO</text><line class="cls-1" x1="420.5515" y1="216.7863" x2="420.5515" y2="226.4495"/><circle class="cls-1" cx="203.8462" cy="78.2719" r="19"/><text class="cls-2" transform="translate(187.8434 108.3591)">GATE<tspan x="3.999" y="14.4004">ENV</tspan></text><line class="cls-1" x1="203.7628" y1="59.2719" x2="203.7628" y2="68.9351"/><circle class="cls-1" cx="278.494" cy="78.2132" r="19"/><circle class="cls-1" cx="351.9556" cy="78.2719" r="19"/><circle class="cls-1" cx="424.6712" cy="78.5" r="19"/><text class="cls-2" transform="translate(266.1607 111.3593)">CV 1</text><text class="cls-2" transform="translate(336.9499 110.7745) scale(1 0.99)">CV 2</text><text class="cls-2" transform="translate(410.6709 111.6931)">CV 3</text><line class="cls-1" x1="278.8273" y1="59.2132" x2="278.8273" y2="68.8764"/><line class="cls-1" x1="352.2889" y1="59.8059" x2="352.2889" y2="69.4691"/><line class="cls-1" x1="425.0045" y1="58.2719" x2="425.0045" y2="67.9351"/><circle class="cls-1" cx="351.2889" cy="23.8333" r="7.5335"/><circle class="cls-1" cx="278.494" cy="23.8333" r="7.5335"/><circle class="cls-1" cx="202.7628" cy="23.8333" r="7.5335"/><circle class="cls-1" cx="87.6904" cy="23.8333" r="7.5335"/><circle class="cls-1" cx="38.3571" cy="23.8333" r="7.5335"/><circle class="cls-1" cx="140.3571" cy="23.8333" r="7.5335"/><circle class="cls-1" cx="421.6712" cy="23.8333" r="7.5335"/><rect class="cls-3" x="223.7891" y="232.9027" width="31.5438" height="31.5438" rx="4.1871" ry="4.1871"/><text class="cls-6" transform="translate(233.7153 259.6667)">-</text><rect class="cls-3" x="271.7221" y="232.9027" width="31.5438" height="31.5438" rx="4.1871" ry="4.1871"/><text class="cls-7" transform="translate(280.7703 255.6566)">+</text><rect class="cls-3" x="295.7549" y="155.314" width="31.5438" height="31.5438" rx="4.1871" ry="4.1871"/><rect class="cls-3" x="340.9556" y="173.9807" width="31.5438" height="31.5438" rx="4.1871" ry="4.1871"/><rect class="cls-3" x="340.9556" y="136.6473" width="31.5438" height="31.5438" rx="4.1871" ry="4.1871"/><text class="cls-2" transform="translate(295.1025 198.0385)">SHIFT</text><text class="cls-7" transform="translate(350.1939 159.6407)">+</text><text class="cls-6" transform="translate(350.194 201.6254)">-</text><rect class="cls-1" x="80.8301" y="66.9582" width="11.3333" height="32.8074"/><rect class="cls-1" x="32.6904" y="65.896" width="11.3333" height="32.8074"/><rect class="cls-1" x="1.5" y="1.5" width="463.055" height="44.6667"/><text class="cls-8" transform="translate(26.3754 100.1364) rotate(-90)">CLOCK</text><text class="cls-2" transform="translate(72.3049 63.1343)">PLAY</text><text class="cls-9" transform="translate(30.2014 61.2133)">E<tspan class="cls-10" x="5.9038" y="0">X</tspan><tspan x="12.8521" y="0">T</tspan></text><text class="cls-9" transform="translate(30.5394 111.0724)">INT</text><text class="cls-11" transform="translate(71.8838 112.8012)">P<tspan class="cls-12" x="5.376" y="0">A</tspan><tspan class="cls-13" x="12.3838" y="0">USE</tspan></text><text class="cls-9" transform="translate(76.2239 13.5)">sta<tspan class="cls-14" x="14.5078" y="0">r</tspan><tspan x="18.7197" y="0">t</tspan></text><text class="cls-9" transform="translate(26.3753 13.4998)">clock</text><text class="cls-9" transform="translate(128.2239 13.4997)">pi<tspan class="cls-15" x="9.6357" y="0">t</tspan><tspan x="13.5356" y="0">ch</tspan></text><text class="cls-9" transform="translate(190.8906 13.4998)">g<tspan class="cls-16" x="6.708" y="0">a</tspan><tspan class="cls-15" x="12.4438" y="0">t</tspan><tspan x="16.3438" y="0">e</tspan></text><text class="cls-9" transform="translate(270.1605 13.4997)"><tspan class="cls-17">c</tspan><tspan x="5.5918" y="0">v1</tspan></text><text class="cls-9" transform="translate(342.9556 13.4997)"><tspan class="cls-17">c</tspan><tspan x="5.5918" y="0">v2</tspan></text><text class="cls-9" transform="translate(413.6707 13.4998)"><tspan class="cls-17">c</tspan><tspan x="5.5918" y="0">v3</tspan></text></svg>